# xmcd
#
# Track frame offsets: 
#        150
#        23432
#        41228
#        58310
#        78126
#        97839
#        114742
#        131492
#        144348
#        164354
#        174894
#        185190
#        199610
#        210226
#        220711
#        238487
#        251073
#        261040
#        273101
#        284283
#        300328
#
# Disc length: 4167 seconds
#
# Revision: 0
# Processed by: cddbd v1.5.2PL0 Copyright (c) Steve Scherf et al.
# Submitted via: ExactAudioCopy v1.0b3
#
DISCID=24104515
DTITLE=Sister Rosetta Tharpe - Complete Sister Rosetta Tharpe, Vol 7 (
DTITLE=Disc 2 - 1960+1961)
DYEAR=2001
DGENRE=Gospel
TTITLE0=Katie Bell Nubin With Dizzy Gillespie and His Orchestra - When T
TTITLE0=he Bridegroom Comes
TTITLE1=Katie Bell Nubin With Dizzy Gillespie and His Orchestra - Virgin
TTITLE1=Mary
TTITLE2=Katie Bell Nubin With Dizzy Gillespie and His Orchestra - Miami 
TTITLE2=Storm
TTITLE3=Katie Bell Nubin With Dizzy Gillespie and His Orchestra - Pressi
TTITLE3=n' On
TTITLE4=Katie Bell Nubin With Dizzy Gillespie and His Orchestra - I Shal
TTITLE4=l Not Be Moved
TTITLE5=Katie Bell Nubin With Dizzy Gillespie and His Orchestra - Angels
TTITLE5=Watchin' Over Me
TTITLE6=Katie Bell Nubin With Dizzy Gillespie and His Orchestra - Where'
TTITLE6=s Adam?
TTITLE7=Katie Bell Nubin With Dizzy Gillespie and His Orchestra - Come O
TTITLE7=ver Here
TTITLE8=Katie Bell Nubin With Dizzy Gillespie and His Orchestra - Sad To
TTITLE8=Think Into That Old Bible
TTITLE9=Take A New Look Into That Old Bible
TTITLE10=Just Keep Still
TTITLE11=Joy In This Land
TTITLE12=The Lonesome Road
TTITLE13=There's A Land Leading Me
TTITLE14=Woman
TTITLE15=With His Great Love
TTITLE16=God Is Wonderful
TTITLE17=Everything To Me
TTITLE18=As You Sow, So Shall You Reap
TTITLE19=Faith In God
TTITLE20=Look In The Good Book, Brother
EXTD=
EXTT0=
EXTT1=
EXTT2=
EXTT3=
EXTT4=
EXTT5=
EXTT6=
EXTT7=
EXTT8=
EXTT9=
EXTT10=
EXTT11=
EXTT12=
EXTT13=
EXTT14=
EXTT15=
EXTT16=
EXTT17=
EXTT18=
EXTT19=
EXTT20=
PLAYORDER=
